{"asset":{"version":"2.0","generator":"ftc-biobuzz-sim convert-balls"},"scene":0,"scenes":[{"nodes":[0,1]}],"nodes":[{"name":"pollen","mesh":0},{"name":"nectar","mesh":1}],"meshes":[{"name":"pollen","primitives":[{"attributes":{"POSITION":0,"NORMAL":1},"indices":2}]},{"name":"nectar","primitives":[{"attributes":{"POSITION":3,"NORMAL":4},"indices":5}]}],"accessors":[{"bufferView":0,"componentType":5126,"count":3073,"type":"VEC3","min":[-0.03538848838813269,-0.035118198359255864,-0.035554245493423786],"max":[0.03538848838813269,0.035118198359255864,0.035554245493423786]},{"bufferView":1,"componentType":5126,"count":3073,"type":"VEC3"},{"bufferView":2,"componentType":5125,"count":10032,"type":"SCALAR"},{"bufferView":3,"componentType":5126,"count":3101,"type":"VEC3","min":[-0.045752259987514504,-0.04568551488751915,-0.04549468830573135],"max":[0.045752259987514504,0.04568551488751915,0.04549468830573135]},{"bufferView":4,"componentType":5126,"count":3101,"type":"VEC3"},{"bufferView":5,"componentType":5125,"count":10224,"type":"SCALAR"}],"bufferViews":[{"buffer":0,"byteOffset":0,"byteLength":36876,"target":34962},{"buffer":0,"byteOffset":36876,"byteLength":36876,"target":34962},{"buffer":0,"byteOffset":73752,"byteLength":40128,"target":34963},{"buffer":0,"byteOffset":113880,"byteLength":37212,"target":34962},{"buffer":0,"byteOffset":151092,"byteLength":37212,"target":34962},{"buffer":0,"byteOffset":188304,"byteLength":40896,"target":34963}],"buffers":[{"byteLength":229200,"uri":"data:application/octet-stream;base64,"}]}